<svg xmlns="http://www.w3.org/2000/svg" viewBox="0 0 720 320" font-family="monospace" font-size="11">
<rect width="100%" height="100%" fill="white"/>
<text x="360" y="20" text-anchor="middle" font-weight="bold" font-size="13">bandit findings</text>
<line x1="60" y1="270.0" x2="580" y2="270.0" stroke="#eee"/>
<text x="54" y="274.0" text-anchor="end" fill="#555">0.0</text>
<line x1="60" y1="210.5" x2="580" y2="210.5" stroke="#eee"/>
<text x="54" y="214.5" text-anchor="end" fill="#555">35.2</text>
<line x1="60" y1="151.0" x2="580" y2="151.0" stroke="#eee"/>
<text x="54" y="155.0" text-anchor="end" fill="#555">70.5</text>
<line x1="60" y1="91.5" x2="580" y2="91.5" stroke="#eee"/>
<text x="54" y="95.5" text-anchor="end" fill="#555">105.8</text>
<line x1="60" y1="32.0" x2="580" y2="32.0" stroke="#eee"/>
<text x="54" y="36.0" text-anchor="end" fill="#555">141.0</text>
<line x1="60" y1="32" x2="60" y2="270" stroke="#888"/>
<line x1="60" y1="270" x2="580" y2="270" stroke="#888"/>
<line x1="60.0" y1="270" x2="60.0" y2="274" stroke="#888"/>
<text x="60.0" y="288" text-anchor="middle" fill="#555">2026-06-01</text>
<line x1="406.7" y1="270" x2="406.7" y2="274" stroke="#888"/>
<text x="406.7" y="288" text-anchor="middle" fill="#555">2026-06-03</text>
<line x1="580.0" y1="270" x2="580.0" y2="274" stroke="#888"/>
<text x="580.0" y="288" text-anchor="middle" fill="#555">2026-06-04</text>
<text x="14" y="151" text-anchor="middle" transform="rotate(-90 14 151)" fill="#555">count</text>
<path d="M60.0,263.2 L233.3,263.2 L406.7,263.2 L580.0,270.0" fill="none" stroke="#1f77b4" stroke-width="2"/>
<circle cx="60.0" cy="263.2" r="3" fill="#1f77b4"/>
<circle cx="233.3" cy="263.2" r="3" fill="#1f77b4"/>
<circle cx="406.7" cy="263.2" r="3" fill="#1f77b4"/>
<circle cx="580.0" cy="270.0" r="3" fill="#1f77b4"/>
<rect x="588" y="42" width="12" height="12" fill="#1f77b4"/>
<text x="604" y="52" fill="#222">high: 0</text>
<path d="M60.0,258.2 L233.3,258.2 L406.7,258.2 L580.0,270.0" fill="none" stroke="#d62728" stroke-width="2"/>
<circle cx="60.0" cy="258.2" r="3" fill="#d62728"/>
<circle cx="233.3" cy="258.2" r="3" fill="#d62728"/>
<circle cx="406.7" cy="258.2" r="3" fill="#d62728"/>
<circle cx="580.0" cy="270.0" r="3" fill="#d62728"/>
<rect x="588" y="60" width="12" height="12" fill="#d62728"/>
<text x="604" y="70" fill="#222">medium: 0</text>
<path d="M60.0,32.0 L233.3,32.0 L406.7,37.1 L580.0,270.0" fill="none" stroke="#2ca02c" stroke-width="2"/>
<circle cx="60.0" cy="32.0" r="3" fill="#2ca02c"/>
<circle cx="233.3" cy="32.0" r="3" fill="#2ca02c"/>
<circle cx="406.7" cy="37.1" r="3" fill="#2ca02c"/>
<circle cx="580.0" cy="270.0" r="3" fill="#2ca02c"/>
<rect x="588" y="78" width="12" height="12" fill="#2ca02c"/>
<text x="604" y="88" fill="#222">low: 0</text>
</svg>
