<svg xmlns="http://www.w3.org/2000/svg" viewBox="0 0 720 320" font-family="monospace" font-size="11">
<rect width="100%" height="100%" fill="white"/>
<text x="360" y="20" text-anchor="middle" font-weight="bold" font-size="13">branch coverage</text>
<line x1="60" y1="270.0" x2="580" y2="270.0" stroke="#eee"/>
<text x="54" y="274.0" text-anchor="end" fill="#555">0.0</text>
<line x1="60" y1="210.5" x2="580" y2="210.5" stroke="#eee"/>
<text x="54" y="214.5" text-anchor="end" fill="#555">16.6</text>
<line x1="60" y1="151.0" x2="580" y2="151.0" stroke="#eee"/>
<text x="54" y="155.0" text-anchor="end" fill="#555">33.1</text>
<line x1="60" y1="91.5" x2="580" y2="91.5" stroke="#eee"/>
<text x="54" y="95.5" text-anchor="end" fill="#555">49.7</text>
<line x1="60" y1="32.0" x2="580" y2="32.0" stroke="#eee"/>
<text x="54" y="36.0" text-anchor="end" fill="#555">66.3</text>
<line x1="60" y1="32" x2="60" y2="270" stroke="#888"/>
<line x1="60" y1="270" x2="580" y2="270" stroke="#888"/>
<line x1="60.0" y1="270" x2="60.0" y2="274" stroke="#888"/>
<text x="60.0" y="288" text-anchor="middle" fill="#555">2026-06-01</text>
<line x1="320.0" y1="270" x2="320.0" y2="274" stroke="#888"/>
<text x="320.0" y="288" text-anchor="middle" fill="#555">2026-06-04</text>
<line x1="580.0" y1="270" x2="580.0" y2="274" stroke="#888"/>
<text x="580.0" y="288" text-anchor="middle" fill="#555">2026-06-22</text>
<text x="14" y="151" text-anchor="middle" transform="rotate(-90 14 151)" fill="#555">%</text>
<path d="M60.0,85.8 L146.7,47.8 L233.3,44.9 L320.0,41.0 L406.7,33.8 L493.3,34.2 L580.0,32.0" fill="none" stroke="#1f77b4" stroke-width="2"/>
<circle cx="60.0" cy="85.8" r="3" fill="#1f77b4"/>
<circle cx="146.7" cy="47.8" r="3" fill="#1f77b4"/>
<circle cx="233.3" cy="44.9" r="3" fill="#1f77b4"/>
<circle cx="320.0" cy="41.0" r="3" fill="#1f77b4"/>
<circle cx="406.7" cy="33.8" r="3" fill="#1f77b4"/>
<circle cx="493.3" cy="34.2" r="3" fill="#1f77b4"/>
<circle cx="580.0" cy="32.0" r="3" fill="#1f77b4"/>
<rect x="588" y="42" width="12" height="12" fill="#1f77b4"/>
<text x="604" y="52" fill="#222">pct: 66.3</text>
</svg>
