<svg xmlns="http://www.w3.org/2000/svg" viewBox="0 0 720 320" font-family="monospace" font-size="11">
<rect width="100%" height="100%" fill="white"/>
<text x="360" y="20" text-anchor="middle" font-weight="bold" font-size="13">branch coverage</text>
<line x1="60" y1="270.0" x2="580" y2="270.0" stroke="#eee"/>
<text x="54" y="274.0" text-anchor="end" fill="#555">0.0</text>
<line x1="60" y1="210.5" x2="580" y2="210.5" stroke="#eee"/>
<text x="54" y="214.5" text-anchor="end" fill="#555">16.4</text>
<line x1="60" y1="151.0" x2="580" y2="151.0" stroke="#eee"/>
<text x="54" y="155.0" text-anchor="end" fill="#555">32.9</text>
<line x1="60" y1="91.5" x2="580" y2="91.5" stroke="#eee"/>
<text x="54" y="95.5" text-anchor="end" fill="#555">49.3</text>
<line x1="60" y1="32.0" x2="580" y2="32.0" stroke="#eee"/>
<text x="54" y="36.0" text-anchor="end" fill="#555">65.8</text>
<line x1="60" y1="32" x2="60" y2="270" stroke="#888"/>
<line x1="60" y1="270" x2="580" y2="270" stroke="#888"/>
<line x1="60.0" y1="270" x2="60.0" y2="274" stroke="#888"/>
<text x="60.0" y="288" text-anchor="middle" fill="#555">2026-06-01</text>
<line x1="372.0" y1="270" x2="372.0" y2="274" stroke="#888"/>
<text x="372.0" y="288" text-anchor="middle" fill="#555">2026-06-04</text>
<line x1="580.0" y1="270" x2="580.0" y2="274" stroke="#888"/>
<text x="580.0" y="288" text-anchor="middle" fill="#555">2026-06-06</text>
<text x="14" y="151" text-anchor="middle" transform="rotate(-90 14 151)" fill="#555">%</text>
<path d="M60.0,84.4 L164.0,46.1 L268.0,43.2 L372.0,39.2 L476.0,32.0 L580.0,32.4" fill="none" stroke="#1f77b4" stroke-width="2"/>
<circle cx="60.0" cy="84.4" r="3" fill="#1f77b4"/>
<circle cx="164.0" cy="46.1" r="3" fill="#1f77b4"/>
<circle cx="268.0" cy="43.2" r="3" fill="#1f77b4"/>
<circle cx="372.0" cy="39.2" r="3" fill="#1f77b4"/>
<circle cx="476.0" cy="32.0" r="3" fill="#1f77b4"/>
<circle cx="580.0" cy="32.4" r="3" fill="#1f77b4"/>
<rect x="588" y="42" width="12" height="12" fill="#1f77b4"/>
<text x="604" y="52" fill="#222">pct: 65.7</text>
</svg>
