<svg xmlns="http://www.w3.org/2000/svg" viewBox="0 0 720 320" font-family="monospace" font-size="11">
<rect width="100%" height="100%" fill="white"/>
<text x="360" y="20" text-anchor="middle" font-weight="bold" font-size="13">mypy errors</text>
<line x1="60" y1="270.0" x2="580" y2="270.0" stroke="#eee"/>
<text x="54" y="274.0" text-anchor="end" fill="#555">0.0</text>
<line x1="60" y1="210.5" x2="580" y2="210.5" stroke="#eee"/>
<text x="54" y="214.5" text-anchor="end" fill="#555">61.5</text>
<line x1="60" y1="151.0" x2="580" y2="151.0" stroke="#eee"/>
<text x="54" y="155.0" text-anchor="end" fill="#555">123.0</text>
<line x1="60" y1="91.5" x2="580" y2="91.5" stroke="#eee"/>
<text x="54" y="95.5" text-anchor="end" fill="#555">184.5</text>
<line x1="60" y1="32.0" x2="580" y2="32.0" stroke="#eee"/>
<text x="54" y="36.0" text-anchor="end" fill="#555">246.0</text>
<line x1="60" y1="32" x2="60" y2="270" stroke="#888"/>
<line x1="60" y1="270" x2="580" y2="270" stroke="#888"/>
<line x1="60.0" y1="270" x2="60.0" y2="274" stroke="#888"/>
<text x="60.0" y="288" text-anchor="middle" fill="#555">2026-06-01</text>
<line x1="357.1" y1="270" x2="357.1" y2="274" stroke="#888"/>
<text x="357.1" y="288" text-anchor="middle" fill="#555">2026-06-05</text>
<line x1="580.0" y1="270" x2="580.0" y2="274" stroke="#888"/>
<text x="580.0" y="288" text-anchor="middle" fill="#555">2026-06-24</text>
<text x="14" y="151" text-anchor="middle" transform="rotate(-90 14 151)" fill="#555">errors</text>
<path d="M60.0,44.6 L134.3,41.7 L208.6,32.0 L282.9,270.0 L357.1,270.0 L431.4,270.0 L505.7,270.0 L580.0,270.0" fill="none" stroke="#1f77b4" stroke-width="2"/>
<circle cx="60.0" cy="44.6" r="3" fill="#1f77b4"/>
<circle cx="134.3" cy="41.7" r="3" fill="#1f77b4"/>
<circle cx="208.6" cy="32.0" r="3" fill="#1f77b4"/>
<circle cx="282.9" cy="270.0" r="3" fill="#1f77b4"/>
<circle cx="357.1" cy="270.0" r="3" fill="#1f77b4"/>
<circle cx="431.4" cy="270.0" r="3" fill="#1f77b4"/>
<circle cx="505.7" cy="270.0" r="3" fill="#1f77b4"/>
<circle cx="580.0" cy="270.0" r="3" fill="#1f77b4"/>
<rect x="588" y="42" width="12" height="12" fill="#1f77b4"/>
<text x="604" y="52" fill="#222">errors: 0</text>
<path d="M60.0,224.5 L134.3,226.5 L208.6,225.5 L282.9,270.0 L357.1,270.0 L431.4,270.0 L505.7,270.0 L580.0,270.0" fill="none" stroke="#d62728" stroke-width="2"/>
<circle cx="60.0" cy="224.5" r="3" fill="#d62728"/>
<circle cx="134.3" cy="226.5" r="3" fill="#d62728"/>
<circle cx="208.6" cy="225.5" r="3" fill="#d62728"/>
<circle cx="282.9" cy="270.0" r="3" fill="#d62728"/>
<circle cx="357.1" cy="270.0" r="3" fill="#d62728"/>
<circle cx="431.4" cy="270.0" r="3" fill="#d62728"/>
<circle cx="505.7" cy="270.0" r="3" fill="#d62728"/>
<circle cx="580.0" cy="270.0" r="3" fill="#d62728"/>
<rect x="588" y="60" width="12" height="12" fill="#d62728"/>
<text x="604" y="70" fill="#222">files: 0</text>
</svg>
