<svg xmlns="http://www.w3.org/2000/svg" viewBox="0 0 720 320" font-family="monospace" font-size="11">
<rect width="100%" height="100%" fill="white"/>
<text x="360" y="20" text-anchor="middle" font-weight="bold" font-size="13">radon cyclomatic complexity</text>
<line x1="60" y1="270.0" x2="580" y2="270.0" stroke="#eee"/>
<text x="54" y="274.0" text-anchor="end" fill="#555">0.0</text>
<line x1="60" y1="210.5" x2="580" y2="210.5" stroke="#eee"/>
<text x="54" y="214.5" text-anchor="end" fill="#555">50.5</text>
<line x1="60" y1="151.0" x2="580" y2="151.0" stroke="#eee"/>
<text x="54" y="155.0" text-anchor="end" fill="#555">101.0</text>
<line x1="60" y1="91.5" x2="580" y2="91.5" stroke="#eee"/>
<text x="54" y="95.5" text-anchor="end" fill="#555">151.5</text>
<line x1="60" y1="32.0" x2="580" y2="32.0" stroke="#eee"/>
<text x="54" y="36.0" text-anchor="end" fill="#555">202.0</text>
<line x1="60" y1="32" x2="60" y2="270" stroke="#888"/>
<line x1="60" y1="270" x2="580" y2="270" stroke="#888"/>
<line x1="60.0" y1="270" x2="60.0" y2="274" stroke="#888"/>
<text x="60.0" y="288" text-anchor="middle" fill="#555">2026-06-01</text>
<line x1="406.7" y1="270" x2="406.7" y2="274" stroke="#888"/>
<text x="406.7" y="288" text-anchor="middle" fill="#555">2026-06-03</text>
<line x1="580.0" y1="270" x2="580.0" y2="274" stroke="#888"/>
<text x="580.0" y="288" text-anchor="middle" fill="#555">2026-06-04</text>
<text x="14" y="151" text-anchor="middle" transform="rotate(-90 14 151)" fill="#555">value</text>
<path d="M60.0,246.1 L233.3,246.5 L406.7,253.0 L580.0,253.0" fill="none" stroke="#1f77b4" stroke-width="2"/>
<circle cx="60.0" cy="246.1" r="3" fill="#1f77b4"/>
<circle cx="233.3" cy="246.5" r="3" fill="#1f77b4"/>
<circle cx="406.7" cy="253.0" r="3" fill="#1f77b4"/>
<circle cx="580.0" cy="253.0" r="3" fill="#1f77b4"/>
<rect x="588" y="42" width="12" height="12" fill="#1f77b4"/>
<text x="604" y="52" fill="#222">avg: 14.41</text>
<path d="M60.0,32.0 L233.3,33.2 L406.7,57.9 L580.0,57.9" fill="none" stroke="#d62728" stroke-width="2"/>
<circle cx="60.0" cy="32.0" r="3" fill="#d62728"/>
<circle cx="233.3" cy="33.2" r="3" fill="#d62728"/>
<circle cx="406.7" cy="57.9" r="3" fill="#d62728"/>
<circle cx="580.0" cy="57.9" r="3" fill="#d62728"/>
<rect x="588" y="60" width="12" height="12" fill="#d62728"/>
<text x="604" y="70" fill="#222">rank_c_plus: 180</text>
</svg>
